<svg width="20" height="26" viewBox="0 0 20 26" fill="none" xmlns="http://www.w3.org/2000/svg">
<path d="M16 25L4 25C2.34315 25 1 23.6569 1 22L1 4C1 2.34315 2.34315 1 4 1L16 1C17.6569 1 19 2.34315 19 4L19 22C19 23.6569 17.6569 25 16 25Z" stroke="white" stroke-width="1.5" stroke-linejoin="round"/>
<circle cx="10" cy="8.00588" r="2.27273" stroke="white" stroke-width="1.5"/>
<path d="M10.2273 12.0968H9.77273C7.13682 12.0968 5 14.2336 5 16.8695C5 17.7482 5.71227 18.4604 6.59091 18.4604H13.4091C14.2877 18.4604 15 17.7482 15 16.8695C15 14.2336 12.8632 12.0968 10.2273 12.0968Z" stroke="white" stroke-width="1.5"/>
</svg>


